<?xml version="1.0" standalone="no"?>
<!DOCTYPE svg PUBLIC "-//W3C//DTD SVG 20010904//EN"
 "http://www.w3.org/TR/2001/REC-SVG-20010904/DTD/svg10.dtd">
<svg version="1.0" xmlns="http://www.w3.org/2000/svg"
 width="2000.000000pt" height="2000.000000pt" viewBox="0 0 2000.000000 2000.000000"
 preserveAspectRatio="xMidYMid meet">

<g transform="translate(0.000000,2000.000000) scale(0.100000,-0.100000)"
fill="#000000" stroke="none">
<path d="M6070 13110 l0 -1270 115 0 115 0 2 1153 3 1152 3823 3 3822 2 0
-3850 0 -3850 -725 0 -725 0 0 -115 0 -115 840 0 840 0 0 4080 0 4080 -4055 0
-4055 0 0 -1270z"/>
<path d="M6244 10856 c-214 -49 -387 -181 -474 -360 -58 -120 -74 -196 -74
-361 -1 -129 1 -147 28 -229 71 -216 238 -369 471 -432 54 -15 104 -19 220
-19 172 0 258 19 387 83 l73 37 3 293 2 292 -240 0 -240 0 0 -105 0 -105 130
0 130 0 0 -119 0 -119 -42 -17 c-63 -26 -254 -32 -336 -11 -181 46 -303 162
-348 331 -18 67 -17 205 1 284 61 256 323 397 623 335 42 -9 104 -27 136 -40
33 -13 60 -23 61 -21 6 10 65 185 65 194 0 12 -97 53 -186 78 -82 23 -310 29
-390 11z"/>
<path d="M7632 10851 c-256 -63 -474 -285 -528 -539 -77 -364 126 -716 481
-834 60 -20 90 -23 215 -23 133 0 152 3 225 28 229 81 417 284 470 507 19 84
19 247 -1 330 -46 196 -202 389 -387 480 -141 68 -323 88 -475 51z m283 -206
c189 -50 336 -217 366 -416 44 -297 -183 -569 -475 -569 -345 1 -580 351 -456
681 86 232 333 364 565 304z"/>
<path d="M6835 8333 c-187 -261 -345 -482 -351 -490 -8 -12 -79 82 -353 471
-189 267 -345 486 -347 486 -2 0 -4 -322 -4 -715 l0 -715 105 0 105 0 2 386 3
386 235 -326 c129 -179 238 -326 241 -326 3 0 113 153 245 340 l239 339 3
-399 2 -400 110 0 110 0 0 720 c0 396 -1 720 -2 719 -2 0 -156 -214 -343 -476z"/>
<path d="M9170 8091 l0 -721 110 0 110 0 2 463 3 462 503 -488 502 -488 0 725
0 726 -112 0 -111 0 7 -471 7 -472 -24 20 c-13 10 -239 230 -501 488 -261 259
-480 471 -486 473 -7 3 -10 -230 -10 -717z"/>
<path d="M12900 8764 c-36 -7 -108 -34 -160 -60 -81 -40 -109 -60 -185 -138
-72 -72 -99 -108 -133 -176 -118 -238 -105 -495 37 -712 131 -200 351 -318
595 -318 119 0 201 18 299 64 185 86 321 239 384 431 23 70 26 96 26 210 0
114 -3 140 -26 210 -38 116 -91 199 -187 295 -140 141 -306 210 -500 209 -47
0 -114 -7 -150 -15z m252 -205 c223 -46 388 -256 388 -494 0 -142 -46 -251
-150 -356 -104 -105 -215 -146 -365 -136 -100 6 -178 35 -258 95 -110 85 -184
222 -194 362 -7 99 9 179 53 269 97 197 313 304 526 260z"/>
<path d="M7640 8288 c0 -524 3 -555 56 -660 57 -112 195 -218 331 -253 67 -18
210 -20 285 -4 196 40 358 198 397 387 7 34 11 221 11 532 l0 480 -110 0 -109
0 -3 -492 c-3 -484 -3 -494 -25 -533 -30 -56 -99 -120 -158 -147 -69 -32 -199
-32 -266 -2 -64 30 -125 88 -157 148 l-27 51 -3 488 -3 487 -109 0 -110 0 0
-482z"/>
<path d="M10880 8070 l0 -702 298 4 c334 5 357 9 502 80 158 76 289 236 336
408 25 91 25 290 0 385 -68 263 -252 438 -525 501 -46 11 -150 17 -338 21
l-273 6 0 -703z m607 462 c86 -27 139 -61 200 -124 94 -100 128 -206 120 -373
-5 -116 -27 -184 -87 -267 -95 -134 -261 -194 -515 -186 l-100 3 -3 475 c-1
261 0 481 3 489 9 22 301 10 382 -17z"/>
<path d="M7630 6358 c-58 -138 -108 -259 -112 -269 -6 -16 -2 -19 26 -19 31 0
34 3 60 70 l28 70 103 0 102 0 25 -67 c25 -68 25 -68 66 -71 l41 -3 -13 33
c-8 18 -58 137 -111 263 -53 127 -99 233 -103 237 -4 4 -54 -106 -112 -244z
m138 25 c17 -43 33 -86 37 -95 6 -16 -1 -18 -70 -18 -58 0 -76 3 -72 13 3 6
20 49 38 95 17 45 33 82 35 82 1 0 16 -35 32 -77z"/>
<path d="M8792 6581 c-107 -37 -172 -134 -172 -256 1 -109 46 -187 137 -231
59 -29 174 -31 246 -4 l57 21 0 105 0 104 -90 0 -90 0 0 -30 c0 -30 1 -30 55
-30 l55 0 0 -55 c0 -51 -2 -55 -27 -62 -45 -13 -136 -7 -169 10 -45 23 -92 81
-100 122 -11 60 1 131 29 173 46 70 152 99 243 68 26 -9 49 -15 51 -13 1 2 6
17 9 34 6 29 5 30 -53 46 -75 21 -115 21 -181 -2z"/>
<path d="M10831 6338 l-1 -268 30 0 30 0 0 187 0 188 195 -195 195 -195 0 268
0 267 -35 0 -35 0 0 -187 0 -188 -190 195 -189 195 0 -267z"/>
<path d="M5620 6584 c0 -3 50 -125 112 -271 80 -191 114 -260 119 -247 4 11
53 127 109 259 56 132 104 246 107 253 4 8 -7 12 -35 12 -37 0 -41 -3 -55 -37
-8 -21 -40 -105 -72 -187 -36 -91 -61 -143 -65 -135 -4 8 -38 92 -75 187 l-69
172 -38 0 c-21 0 -38 -2 -38 -6z"/>
<path d="M6760 6330 l0 -260 35 0 35 0 0 260 0 260 -35 0 -35 0 0 -260z"/>
<path d="M9770 6330 l0 -260 175 0 175 0 0 35 0 35 -140 0 -140 0 0 80 0 80
120 0 120 0 0 35 0 35 -120 0 -120 0 0 80 0 80 135 0 135 0 0 30 0 30 -170 0
-170 0 0 -260z"/>
<path d="M12059 6567 c-42 -28 -59 -60 -59 -113 0 -58 29 -91 119 -132 97 -44
121 -66 121 -109 0 -54 -36 -83 -102 -83 -31 0 -71 9 -95 20 -42 19 -43 19
-53 0 -16 -31 -12 -37 39 -59 58 -25 158 -28 199 -7 50 26 75 62 80 117 8 82
-14 112 -117 161 -107 50 -121 62 -121 104 0 62 86 87 173 50 35 -14 37 -14
48 5 15 30 6 44 -39 57 -67 20 -154 15 -193 -11z"/>
</g>
</svg>
